<mxfile>
    <diagram id="a5BqVZRCrvQnVXiIaeCO" name="3">
        <mxGraphModel dx="2589" dy="964" grid="1" gridSize="10" guides="1" tooltips="1" connect="1" arrows="1" fold="1" page="1" pageScale="1" pageWidth="850" pageHeight="1100" math="0" shadow="0">
            <root>
                <mxCell id="umrNYYDByVS3awB_3hQP-0"/>
                <mxCell id="umrNYYDByVS3awB_3hQP-1" parent="umrNYYDByVS3awB_3hQP-0"/>
                <mxCell id="2lPlmtYwZ7W6lKuh6pxE-0" value="" style="group;sketch=1;" vertex="1" connectable="0" parent="umrNYYDByVS3awB_3hQP-1">
                    <mxGeometry x="187.16000000000003" y="230" width="400" height="170" as="geometry"/>
                </mxCell>
                <mxCell id="2lPlmtYwZ7W6lKuh6pxE-1" value="" style="line;strokeWidth=4;direction=south;html=1;perimeter=backbonePerimeter;points=[];outlineConnect=0;" vertex="1" parent="2lPlmtYwZ7W6lKuh6pxE-0">
                    <mxGeometry x="43.24324324324323" width="10.810810810810807" height="136" as="geometry"/>
                </mxCell>
                <mxCell id="2lPlmtYwZ7W6lKuh6pxE-2" value="" style="shape=ext;double=1;rounded=0;whiteSpace=wrap;html=1;fillColor=none;" vertex="1" parent="2lPlmtYwZ7W6lKuh6pxE-0">
                    <mxGeometry y="136" width="399.99999999999994" height="34" as="geometry"/>
                </mxCell>
                <mxCell id="2lPlmtYwZ7W6lKuh6pxE-3" value="" style="line;strokeWidth=4;direction=south;html=1;perimeter=backbonePerimeter;points=[];outlineConnect=0;" vertex="1" parent="2lPlmtYwZ7W6lKuh6pxE-0">
                    <mxGeometry x="356.7567567567567" width="10.810810810810807" height="136" as="geometry"/>
                </mxCell>
                <mxCell id="2lPlmtYwZ7W6lKuh6pxE-4" value="" style="line;strokeWidth=4;direction=south;html=1;perimeter=backbonePerimeter;points=[];outlineConnect=0;" vertex="1" parent="2lPlmtYwZ7W6lKuh6pxE-0">
                    <mxGeometry x="194.59459459459453" width="10.810810810810807" height="136" as="geometry"/>
                </mxCell>
                <mxCell id="2lPlmtYwZ7W6lKuh6pxE-5" value="" style="group" vertex="1" connectable="0" parent="2lPlmtYwZ7W6lKuh6pxE-0">
                    <mxGeometry x="-7.16279069767442" y="68" width="111.62790697674417" height="68" as="geometry"/>
                </mxCell>
                <mxCell id="2lPlmtYwZ7W6lKuh6pxE-7" value="" style="rounded=1;whiteSpace=wrap;html=1;sketch=1;fillColor=#d80073;strokeColor=#A50040;fontColor=#ffffff;" vertex="1" parent="2lPlmtYwZ7W6lKuh6pxE-5">
                    <mxGeometry x="13.953488372093021" y="51" width="83.72093023255813" height="17" as="geometry"/>
                </mxCell>
                <mxCell id="2lPlmtYwZ7W6lKuh6pxE-8" value="" style="rounded=1;whiteSpace=wrap;html=1;sketch=1;fillColor=#008a00;strokeColor=#005700;fontColor=#ffffff;" vertex="1" parent="2lPlmtYwZ7W6lKuh6pxE-5">
                    <mxGeometry x="30.23255813953488" y="34" width="51.16279069767441" height="17" as="geometry"/>
                </mxCell>
                <mxCell id="2lPlmtYwZ7W6lKuh6pxE-9" value="" style="rounded=1;whiteSpace=wrap;html=1;sketch=1;fillColor=#e3c800;strokeColor=#B09500;fontColor=#000000;" vertex="1" parent="2lPlmtYwZ7W6lKuh6pxE-5">
                    <mxGeometry x="38.37209302325581" y="17" width="34.88372093023255" height="17" as="geometry"/>
                </mxCell>
                <mxCell id="2lPlmtYwZ7W6lKuh6pxE-10" value="" style="group;sketch=1;" vertex="1" connectable="0" parent="umrNYYDByVS3awB_3hQP-1">
                    <mxGeometry x="-180" y="500" width="408.31384615384616" height="170" as="geometry"/>
                </mxCell>
                <mxCell id="2lPlmtYwZ7W6lKuh6pxE-11" value="" style="line;strokeWidth=4;direction=south;html=1;perimeter=backbonePerimeter;points=[];outlineConnect=0;" vertex="1" parent="2lPlmtYwZ7W6lKuh6pxE-10">
                    <mxGeometry x="43.24324324324323" width="10.810810810810807" height="136" as="geometry"/>
                </mxCell>
                <mxCell id="2lPlmtYwZ7W6lKuh6pxE-12" value="A" style="shape=ext;double=1;rounded=0;whiteSpace=wrap;html=1;fillColor=none;fontSize=19;fontColor=#FFFFFF;" vertex="1" parent="2lPlmtYwZ7W6lKuh6pxE-10">
                    <mxGeometry y="136" width="399.99999999999994" height="34" as="geometry"/>
                </mxCell>
                <mxCell id="2lPlmtYwZ7W6lKuh6pxE-13" value="" style="line;strokeWidth=4;direction=south;html=1;perimeter=backbonePerimeter;points=[];outlineConnect=0;" vertex="1" parent="2lPlmtYwZ7W6lKuh6pxE-10">
                    <mxGeometry x="356.7567567567567" width="10.810810810810807" height="136" as="geometry"/>
                </mxCell>
                <mxCell id="2lPlmtYwZ7W6lKuh6pxE-14" value="" style="line;strokeWidth=4;direction=south;html=1;perimeter=backbonePerimeter;points=[];outlineConnect=0;" vertex="1" parent="2lPlmtYwZ7W6lKuh6pxE-10">
                    <mxGeometry x="194.59459459459453" width="10.810810810810807" height="136" as="geometry"/>
                </mxCell>
                <mxCell id="2lPlmtYwZ7W6lKuh6pxE-17" value="" style="group" vertex="1" connectable="0" parent="2lPlmtYwZ7W6lKuh6pxE-10">
                    <mxGeometry x="153.84615384615384" y="90" width="92.30769230769229" height="60" as="geometry"/>
                </mxCell>
                <mxCell id="2lPlmtYwZ7W6lKuh6pxE-19" value="" style="rounded=1;whiteSpace=wrap;html=1;sketch=1;fillColor=#008a00;strokeColor=#005700;fontColor=#ffffff;" vertex="1" parent="2lPlmtYwZ7W6lKuh6pxE-17">
                    <mxGeometry x="17.94871794871795" y="30" width="56.41025641025641" height="20" as="geometry"/>
                </mxCell>
                <mxCell id="2lPlmtYwZ7W6lKuh6pxE-20" value="" style="rounded=1;whiteSpace=wrap;html=1;sketch=1;fillColor=#e3c800;strokeColor=#B09500;fontColor=#000000;" vertex="1" parent="2lPlmtYwZ7W6lKuh6pxE-17">
                    <mxGeometry x="26.92307692307692" y="10" width="38.46153846153846" height="20" as="geometry"/>
                </mxCell>
                <mxCell id="2lPlmtYwZ7W6lKuh6pxE-18" value="" style="rounded=1;whiteSpace=wrap;html=1;sketch=1;fillColor=#d80073;strokeColor=#A50040;fontColor=#ffffff;" vertex="1" parent="2lPlmtYwZ7W6lKuh6pxE-10">
                    <mxGeometry x="2.4961538461538453" y="116" width="92.30769230769229" height="20" as="geometry"/>
                </mxCell>
                <mxCell id="2lPlmtYwZ7W6lKuh6pxE-21" value="" style="group;sketch=1;" vertex="1" connectable="0" parent="umrNYYDByVS3awB_3hQP-1">
                    <mxGeometry x="260" y="500" width="417.97511627906977" height="170" as="geometry"/>
                </mxCell>
                <mxCell id="2lPlmtYwZ7W6lKuh6pxE-22" value="" style="line;strokeWidth=4;direction=south;html=1;perimeter=backbonePerimeter;points=[];outlineConnect=0;" vertex="1" parent="2lPlmtYwZ7W6lKuh6pxE-21">
                    <mxGeometry x="43.24324324324323" width="10.810810810810807" height="136" as="geometry"/>
                </mxCell>
                <mxCell id="2lPlmtYwZ7W6lKuh6pxE-23" value="B" style="shape=ext;double=1;rounded=0;whiteSpace=wrap;html=1;fillColor=none;fontSize=19;fontColor=#FFFFFF;" vertex="1" parent="2lPlmtYwZ7W6lKuh6pxE-21">
                    <mxGeometry y="136" width="399.99999999999994" height="34" as="geometry"/>
                </mxCell>
                <mxCell id="2lPlmtYwZ7W6lKuh6pxE-24" value="" style="line;strokeWidth=4;direction=south;html=1;perimeter=backbonePerimeter;points=[];outlineConnect=0;" vertex="1" parent="2lPlmtYwZ7W6lKuh6pxE-21">
                    <mxGeometry x="356.7567567567567" width="10.810810810810807" height="136" as="geometry"/>
                </mxCell>
                <mxCell id="2lPlmtYwZ7W6lKuh6pxE-25" value="" style="line;strokeWidth=4;direction=south;html=1;perimeter=backbonePerimeter;points=[];outlineConnect=0;" vertex="1" parent="2lPlmtYwZ7W6lKuh6pxE-21">
                    <mxGeometry x="194.59459459459453" width="10.810810810810807" height="136" as="geometry"/>
                </mxCell>
                <mxCell id="2lPlmtYwZ7W6lKuh6pxE-26" value="" style="group" vertex="1" connectable="0" parent="2lPlmtYwZ7W6lKuh6pxE-21">
                    <mxGeometry x="153.84615384615384" y="72" width="92.30769230769229" height="60" as="geometry"/>
                </mxCell>
                <mxCell id="2lPlmtYwZ7W6lKuh6pxE-28" value="" style="rounded=1;whiteSpace=wrap;html=1;sketch=1;fillColor=#008a00;strokeColor=#005700;fontColor=#ffffff;" vertex="1" parent="2lPlmtYwZ7W6lKuh6pxE-26">
                    <mxGeometry x="17.94871794871795" y="48" width="56.41025641025641" height="20" as="geometry"/>
                </mxCell>
                <mxCell id="2lPlmtYwZ7W6lKuh6pxE-29" value="" style="rounded=1;whiteSpace=wrap;html=1;sketch=1;fillColor=#e3c800;strokeColor=#B09500;fontColor=#000000;" vertex="1" parent="2lPlmtYwZ7W6lKuh6pxE-26">
                    <mxGeometry x="26.92307692307692" y="28" width="38.46153846153846" height="20" as="geometry"/>
                </mxCell>
                <mxCell id="2lPlmtYwZ7W6lKuh6pxE-27" value="" style="rounded=1;whiteSpace=wrap;html=1;sketch=1;fillColor=#d80073;strokeColor=#A50040;fontColor=#ffffff;" vertex="1" parent="2lPlmtYwZ7W6lKuh6pxE-21">
                    <mxGeometry x="307.69615384615383" y="112" width="92.30769230769229" height="20" as="geometry"/>
                </mxCell>
                <mxCell id="2lPlmtYwZ7W6lKuh6pxE-31" value="" style="group;sketch=1;" vertex="1" connectable="0" parent="umrNYYDByVS3awB_3hQP-1">
                    <mxGeometry x="700" y="500" width="417.97511627906977" height="170" as="geometry"/>
                </mxCell>
                <mxCell id="2lPlmtYwZ7W6lKuh6pxE-32" value="" style="line;strokeWidth=4;direction=south;html=1;perimeter=backbonePerimeter;points=[];outlineConnect=0;" vertex="1" parent="2lPlmtYwZ7W6lKuh6pxE-31">
                    <mxGeometry x="43.24324324324323" width="10.810810810810807" height="136" as="geometry"/>
                </mxCell>
                <mxCell id="2lPlmtYwZ7W6lKuh6pxE-33" value="C" style="shape=ext;double=1;rounded=0;whiteSpace=wrap;html=1;fillColor=none;fontSize=19;fontColor=#FFFFFF;" vertex="1" parent="2lPlmtYwZ7W6lKuh6pxE-31">
                    <mxGeometry y="136" width="399.99999999999994" height="34" as="geometry"/>
                </mxCell>
                <mxCell id="2lPlmtYwZ7W6lKuh6pxE-34" value="" style="line;strokeWidth=4;direction=south;html=1;perimeter=backbonePerimeter;points=[];outlineConnect=0;" vertex="1" parent="2lPlmtYwZ7W6lKuh6pxE-31">
                    <mxGeometry x="356.7567567567567" width="10.810810810810807" height="136" as="geometry"/>
                </mxCell>
                <mxCell id="2lPlmtYwZ7W6lKuh6pxE-35" value="" style="line;strokeWidth=4;direction=south;html=1;perimeter=backbonePerimeter;points=[];outlineConnect=0;" vertex="1" parent="2lPlmtYwZ7W6lKuh6pxE-31">
                    <mxGeometry x="194.59459459459453" width="10.810810810810807" height="136" as="geometry"/>
                </mxCell>
                <mxCell id="2lPlmtYwZ7W6lKuh6pxE-37" value="" style="rounded=1;whiteSpace=wrap;html=1;sketch=1;fillColor=#d80073;strokeColor=#A50040;fontColor=#ffffff;" vertex="1" parent="2lPlmtYwZ7W6lKuh6pxE-31">
                    <mxGeometry x="316.0061538461538" y="116" width="92.30769230769229" height="20" as="geometry"/>
                </mxCell>
                <mxCell id="2lPlmtYwZ7W6lKuh6pxE-38" value="" style="rounded=1;whiteSpace=wrap;html=1;sketch=1;fillColor=#008a00;strokeColor=#005700;fontColor=#ffffff;" vertex="1" parent="2lPlmtYwZ7W6lKuh6pxE-31">
                    <mxGeometry x="333.9548717948718" y="96" width="56.41025641025641" height="20" as="geometry"/>
                </mxCell>
                <mxCell id="2lPlmtYwZ7W6lKuh6pxE-39" value="" style="rounded=1;whiteSpace=wrap;html=1;sketch=1;fillColor=#e3c800;strokeColor=#B09500;fontColor=#000000;arcSize=0;" vertex="1" parent="umrNYYDByVS3awB_3hQP-1">
                    <mxGeometry x="1042.9292307692308" y="575" width="38.46153846153846" height="20" as="geometry"/>
                </mxCell>
                <mxCell id="2lPlmtYwZ7W6lKuh6pxE-40" value="步骤一" style="text;html=1;strokeColor=none;fillColor=none;align=center;verticalAlign=middle;whiteSpace=wrap;rounded=0;sketch=1;strokeWidth=1;fontSize=22;" vertex="1" parent="umrNYYDByVS3awB_3hQP-1">
                    <mxGeometry x="-50" y="700" width="110" height="20" as="geometry"/>
                </mxCell>
                <mxCell id="2lPlmtYwZ7W6lKuh6pxE-41" value="步骤二" style="text;html=1;strokeColor=none;fillColor=none;align=center;verticalAlign=middle;whiteSpace=wrap;rounded=0;sketch=1;strokeWidth=1;fontSize=22;" vertex="1" parent="umrNYYDByVS3awB_3hQP-1">
                    <mxGeometry x="410" y="700" width="110" height="20" as="geometry"/>
                </mxCell>
                <mxCell id="2lPlmtYwZ7W6lKuh6pxE-42" value="步骤三" style="text;html=1;strokeColor=none;fillColor=none;align=center;verticalAlign=middle;whiteSpace=wrap;rounded=0;sketch=1;strokeWidth=1;fontSize=22;" vertex="1" parent="umrNYYDByVS3awB_3hQP-1">
                    <mxGeometry x="860" y="700" width="110" height="20" as="geometry"/>
                </mxCell>
            </root>
        </mxGraphModel>
    </diagram>
    <diagram id="u6kiSu9nzOKephy5hVUx" name="4">
        <mxGraphModel dx="2589" dy="964" grid="1" gridSize="10" guides="1" tooltips="1" connect="1" arrows="1" fold="1" page="1" pageScale="1" pageWidth="850" pageHeight="1100" math="0" shadow="0">
            <root>
                <mxCell id="0"/>
                <mxCell id="1" parent="0"/>
                <mxCell id="6" value="" style="group;sketch=1;" vertex="1" connectable="0" parent="1">
                    <mxGeometry x="187.16000000000003" y="230" width="400" height="170" as="geometry"/>
                </mxCell>
                <mxCell id="2" value="" style="line;strokeWidth=4;direction=south;html=1;perimeter=backbonePerimeter;points=[];outlineConnect=0;" vertex="1" parent="6">
                    <mxGeometry x="43.24324324324323" width="10.810810810810807" height="136" as="geometry"/>
                </mxCell>
                <mxCell id="3" value="" style="shape=ext;double=1;rounded=0;whiteSpace=wrap;html=1;fillColor=none;" vertex="1" parent="6">
                    <mxGeometry y="136" width="399.99999999999994" height="34" as="geometry"/>
                </mxCell>
                <mxCell id="4" value="" style="line;strokeWidth=4;direction=south;html=1;perimeter=backbonePerimeter;points=[];outlineConnect=0;" vertex="1" parent="6">
                    <mxGeometry x="356.7567567567567" width="10.810810810810807" height="136" as="geometry"/>
                </mxCell>
                <mxCell id="5" value="" style="line;strokeWidth=4;direction=south;html=1;perimeter=backbonePerimeter;points=[];outlineConnect=0;" vertex="1" parent="6">
                    <mxGeometry x="194.59459459459453" width="10.810810810810807" height="136" as="geometry"/>
                </mxCell>
                <mxCell id="19" value="" style="group" vertex="1" connectable="0" parent="6">
                    <mxGeometry x="-7.16279069767442" y="68" width="111.62790697674417" height="68" as="geometry"/>
                </mxCell>
                <mxCell id="7" value="" style="rounded=1;whiteSpace=wrap;html=1;sketch=1;fillColor=#1ba1e2;strokeColor=#006EAF;fontColor=#ffffff;" vertex="1" parent="19">
                    <mxGeometry y="51" width="111.62790697674417" height="17" as="geometry"/>
                </mxCell>
                <mxCell id="8" value="" style="rounded=1;whiteSpace=wrap;html=1;sketch=1;fillColor=#d80073;strokeColor=#A50040;fontColor=#ffffff;" vertex="1" parent="19">
                    <mxGeometry x="13.953488372093021" y="34" width="83.72093023255813" height="17" as="geometry"/>
                </mxCell>
                <mxCell id="9" value="" style="rounded=1;whiteSpace=wrap;html=1;sketch=1;fillColor=#008a00;strokeColor=#005700;fontColor=#ffffff;" vertex="1" parent="19">
                    <mxGeometry x="30.23255813953488" y="17" width="51.16279069767441" height="17" as="geometry"/>
                </mxCell>
                <mxCell id="10" value="" style="rounded=1;whiteSpace=wrap;html=1;sketch=1;fillColor=#e3c800;strokeColor=#B09500;fontColor=#000000;" vertex="1" parent="19">
                    <mxGeometry x="38.37209302325581" width="34.88372093023255" height="17" as="geometry"/>
                </mxCell>
                <mxCell id="C-LJU3vZAfTIJbTWokBN-19" value="" style="group;sketch=1;" vertex="1" connectable="0" parent="1">
                    <mxGeometry x="-180" y="500" width="400" height="170" as="geometry"/>
                </mxCell>
                <mxCell id="C-LJU3vZAfTIJbTWokBN-20" value="" style="line;strokeWidth=4;direction=south;html=1;perimeter=backbonePerimeter;points=[];outlineConnect=0;" vertex="1" parent="C-LJU3vZAfTIJbTWokBN-19">
                    <mxGeometry x="43.24324324324323" width="10.810810810810807" height="136" as="geometry"/>
                </mxCell>
                <mxCell id="C-LJU3vZAfTIJbTWokBN-21" value="A" style="shape=ext;double=1;rounded=0;whiteSpace=wrap;html=1;fillColor=none;fontSize=19;fontColor=#FFFFFF;" vertex="1" parent="C-LJU3vZAfTIJbTWokBN-19">
                    <mxGeometry y="136" width="399.99999999999994" height="34" as="geometry"/>
                </mxCell>
                <mxCell id="C-LJU3vZAfTIJbTWokBN-22" value="" style="line;strokeWidth=4;direction=south;html=1;perimeter=backbonePerimeter;points=[];outlineConnect=0;" vertex="1" parent="C-LJU3vZAfTIJbTWokBN-19">
                    <mxGeometry x="356.7567567567567" width="10.810810810810807" height="136" as="geometry"/>
                </mxCell>
                <mxCell id="C-LJU3vZAfTIJbTWokBN-23" value="" style="line;strokeWidth=4;direction=south;html=1;perimeter=backbonePerimeter;points=[];outlineConnect=0;" vertex="1" parent="C-LJU3vZAfTIJbTWokBN-19">
                    <mxGeometry x="194.59459459459453" width="10.810810810810807" height="136" as="geometry"/>
                </mxCell>
                <mxCell id="C-LJU3vZAfTIJbTWokBN-24" value="" style="group" vertex="1" connectable="0" parent="C-LJU3vZAfTIJbTWokBN-19">
                    <mxGeometry x="-7.16279069767442" y="68" width="111.62790697674417" height="68" as="geometry"/>
                </mxCell>
                <mxCell id="C-LJU3vZAfTIJbTWokBN-25" value="" style="rounded=1;whiteSpace=wrap;html=1;sketch=1;fillColor=#1ba1e2;strokeColor=#006EAF;fontColor=#ffffff;" vertex="1" parent="C-LJU3vZAfTIJbTWokBN-24">
                    <mxGeometry y="51" width="111.62790697674417" height="17" as="geometry"/>
                </mxCell>
                <mxCell id="C-LJU3vZAfTIJbTWokBN-26" value="" style="group" vertex="1" connectable="0" parent="C-LJU3vZAfTIJbTWokBN-19">
                    <mxGeometry x="153.84615384615384" y="72" width="92.30769230769229" height="60" as="geometry"/>
                </mxCell>
                <mxCell id="C-LJU3vZAfTIJbTWokBN-27" value="" style="rounded=1;whiteSpace=wrap;html=1;sketch=1;fillColor=#d80073;strokeColor=#A50040;fontColor=#ffffff;" vertex="1" parent="C-LJU3vZAfTIJbTWokBN-26">
                    <mxGeometry y="40" width="92.30769230769229" height="20" as="geometry"/>
                </mxCell>
                <mxCell id="C-LJU3vZAfTIJbTWokBN-28" value="" style="rounded=1;whiteSpace=wrap;html=1;sketch=1;fillColor=#008a00;strokeColor=#005700;fontColor=#ffffff;" vertex="1" parent="C-LJU3vZAfTIJbTWokBN-26">
                    <mxGeometry x="17.94871794871795" y="20" width="56.41025641025641" height="20" as="geometry"/>
                </mxCell>
                <mxCell id="C-LJU3vZAfTIJbTWokBN-29" value="" style="rounded=1;whiteSpace=wrap;html=1;sketch=1;fillColor=#e3c800;strokeColor=#B09500;fontColor=#000000;" vertex="1" parent="C-LJU3vZAfTIJbTWokBN-26">
                    <mxGeometry x="26.92307692307692" width="38.46153846153846" height="20" as="geometry"/>
                </mxCell>
                <mxCell id="C-LJU3vZAfTIJbTWokBN-30" value="" style="group;sketch=1;" vertex="1" connectable="0" parent="1">
                    <mxGeometry x="260" y="500" width="417.97511627906977" height="170" as="geometry"/>
                </mxCell>
                <mxCell id="C-LJU3vZAfTIJbTWokBN-31" value="" style="line;strokeWidth=4;direction=south;html=1;perimeter=backbonePerimeter;points=[];outlineConnect=0;" vertex="1" parent="C-LJU3vZAfTIJbTWokBN-30">
                    <mxGeometry x="43.24324324324323" width="10.810810810810807" height="136" as="geometry"/>
                </mxCell>
                <mxCell id="C-LJU3vZAfTIJbTWokBN-32" value="B" style="shape=ext;double=1;rounded=0;whiteSpace=wrap;html=1;fillColor=none;fontSize=19;fontColor=#FFFFFF;" vertex="1" parent="C-LJU3vZAfTIJbTWokBN-30">
                    <mxGeometry y="136" width="399.99999999999994" height="34" as="geometry"/>
                </mxCell>
                <mxCell id="C-LJU3vZAfTIJbTWokBN-33" value="" style="line;strokeWidth=4;direction=south;html=1;perimeter=backbonePerimeter;points=[];outlineConnect=0;" vertex="1" parent="C-LJU3vZAfTIJbTWokBN-30">
                    <mxGeometry x="356.7567567567567" width="10.810810810810807" height="136" as="geometry"/>
                </mxCell>
                <mxCell id="C-LJU3vZAfTIJbTWokBN-34" value="" style="line;strokeWidth=4;direction=south;html=1;perimeter=backbonePerimeter;points=[];outlineConnect=0;" vertex="1" parent="C-LJU3vZAfTIJbTWokBN-30">
                    <mxGeometry x="194.59459459459453" width="10.810810810810807" height="136" as="geometry"/>
                </mxCell>
                <mxCell id="C-LJU3vZAfTIJbTWokBN-35" value="" style="group" vertex="1" connectable="0" parent="C-LJU3vZAfTIJbTWokBN-30">
                    <mxGeometry x="153.84615384615384" y="72" width="92.30769230769229" height="60" as="geometry"/>
                </mxCell>
                <mxCell id="C-LJU3vZAfTIJbTWokBN-36" value="" style="rounded=1;whiteSpace=wrap;html=1;sketch=1;fillColor=#d80073;strokeColor=#A50040;fontColor=#ffffff;" vertex="1" parent="C-LJU3vZAfTIJbTWokBN-35">
                    <mxGeometry y="40" width="92.30769230769229" height="20" as="geometry"/>
                </mxCell>
                <mxCell id="C-LJU3vZAfTIJbTWokBN-37" value="" style="rounded=1;whiteSpace=wrap;html=1;sketch=1;fillColor=#008a00;strokeColor=#005700;fontColor=#ffffff;" vertex="1" parent="C-LJU3vZAfTIJbTWokBN-35">
                    <mxGeometry x="17.94871794871795" y="20" width="56.41025641025641" height="20" as="geometry"/>
                </mxCell>
                <mxCell id="C-LJU3vZAfTIJbTWokBN-38" value="" style="rounded=1;whiteSpace=wrap;html=1;sketch=1;fillColor=#e3c800;strokeColor=#B09500;fontColor=#000000;" vertex="1" parent="C-LJU3vZAfTIJbTWokBN-35">
                    <mxGeometry x="26.92307692307692" width="38.46153846153846" height="20" as="geometry"/>
                </mxCell>
                <mxCell id="C-LJU3vZAfTIJbTWokBN-39" value="" style="rounded=1;whiteSpace=wrap;html=1;sketch=1;fillColor=#1ba1e2;strokeColor=#006EAF;fontColor=#ffffff;" vertex="1" parent="C-LJU3vZAfTIJbTWokBN-30">
                    <mxGeometry x="306.3472093023256" y="119" width="111.62790697674417" height="17" as="geometry"/>
                </mxCell>
                <mxCell id="C-LJU3vZAfTIJbTWokBN-40" value="" style="group;sketch=1;" vertex="1" connectable="0" parent="1">
                    <mxGeometry x="700" y="500" width="417.97511627906977" height="170" as="geometry"/>
                </mxCell>
                <mxCell id="C-LJU3vZAfTIJbTWokBN-41" value="" style="line;strokeWidth=4;direction=south;html=1;perimeter=backbonePerimeter;points=[];outlineConnect=0;" vertex="1" parent="C-LJU3vZAfTIJbTWokBN-40">
                    <mxGeometry x="43.24324324324323" width="10.810810810810807" height="136" as="geometry"/>
                </mxCell>
                <mxCell id="C-LJU3vZAfTIJbTWokBN-42" value="C" style="shape=ext;double=1;rounded=0;whiteSpace=wrap;html=1;fillColor=none;fontSize=19;fontColor=#FFFFFF;" vertex="1" parent="C-LJU3vZAfTIJbTWokBN-40">
                    <mxGeometry y="136" width="399.99999999999994" height="34" as="geometry"/>
                </mxCell>
                <mxCell id="C-LJU3vZAfTIJbTWokBN-43" value="" style="line;strokeWidth=4;direction=south;html=1;perimeter=backbonePerimeter;points=[];outlineConnect=0;" vertex="1" parent="C-LJU3vZAfTIJbTWokBN-40">
                    <mxGeometry x="356.7567567567567" width="10.810810810810807" height="136" as="geometry"/>
                </mxCell>
                <mxCell id="C-LJU3vZAfTIJbTWokBN-44" value="" style="line;strokeWidth=4;direction=south;html=1;perimeter=backbonePerimeter;points=[];outlineConnect=0;" vertex="1" parent="C-LJU3vZAfTIJbTWokBN-40">
                    <mxGeometry x="194.59459459459453" width="10.810810810810807" height="136" as="geometry"/>
                </mxCell>
                <mxCell id="C-LJU3vZAfTIJbTWokBN-45" value="" style="rounded=1;whiteSpace=wrap;html=1;sketch=1;fillColor=#1ba1e2;strokeColor=#006EAF;fontColor=#ffffff;" vertex="1" parent="C-LJU3vZAfTIJbTWokBN-40">
                    <mxGeometry x="306.3472093023256" y="119" width="111.62790697674417" height="17" as="geometry"/>
                </mxCell>
                <mxCell id="C-LJU3vZAfTIJbTWokBN-46" value="" style="rounded=1;whiteSpace=wrap;html=1;sketch=1;fillColor=#d80073;strokeColor=#A50040;fontColor=#ffffff;" vertex="1" parent="C-LJU3vZAfTIJbTWokBN-40">
                    <mxGeometry x="316.0061538461538" y="99" width="92.30769230769229" height="20" as="geometry"/>
                </mxCell>
                <mxCell id="C-LJU3vZAfTIJbTWokBN-47" value="" style="rounded=1;whiteSpace=wrap;html=1;sketch=1;fillColor=#008a00;strokeColor=#005700;fontColor=#ffffff;" vertex="1" parent="C-LJU3vZAfTIJbTWokBN-40">
                    <mxGeometry x="333.9548717948718" y="79" width="56.41025641025641" height="20" as="geometry"/>
                </mxCell>
                <mxCell id="C-LJU3vZAfTIJbTWokBN-48" value="" style="rounded=1;whiteSpace=wrap;html=1;sketch=1;fillColor=#e3c800;strokeColor=#B09500;fontColor=#000000;arcSize=0;" vertex="1" parent="1">
                    <mxGeometry x="1042.9292307692308" y="558" width="38.46153846153846" height="20" as="geometry"/>
                </mxCell>
                <mxCell id="C-LJU3vZAfTIJbTWokBN-50" value="步骤一" style="text;html=1;strokeColor=none;fillColor=none;align=center;verticalAlign=middle;whiteSpace=wrap;rounded=0;sketch=1;strokeWidth=1;fontSize=22;" vertex="1" parent="1">
                    <mxGeometry x="-50" y="700" width="110" height="20" as="geometry"/>
                </mxCell>
                <mxCell id="C-LJU3vZAfTIJbTWokBN-51" value="步骤二" style="text;html=1;strokeColor=none;fillColor=none;align=center;verticalAlign=middle;whiteSpace=wrap;rounded=0;sketch=1;strokeWidth=1;fontSize=22;" vertex="1" parent="1">
                    <mxGeometry x="410" y="700" width="110" height="20" as="geometry"/>
                </mxCell>
                <mxCell id="C-LJU3vZAfTIJbTWokBN-52" value="步骤三" style="text;html=1;strokeColor=none;fillColor=none;align=center;verticalAlign=middle;whiteSpace=wrap;rounded=0;sketch=1;strokeWidth=1;fontSize=22;" vertex="1" parent="1">
                    <mxGeometry x="860" y="700" width="110" height="20" as="geometry"/>
                </mxCell>
            </root>
        </mxGraphModel>
    </diagram>
</mxfile>